Genre:Drama | Thriller
Language:English
IMDb:http://www.imdb.com/title/tt1529572/
Source:LIMITED.720p.Bluray.x264-MHD Thanks!

Format : MPEG-4
Format profile : Base Media
Codec ID : isom
File size : 2.47 GiB
Duration : 1h 45mn
Overall bit rate : 3 353 Kbps

Video
ID : 1
Format : AVC
Format/Info : Advanced Video Codec
Format profile : High@L4.1
Format settings, CABAC : Yes
Format settings, ReFrames : 3 frames
Codec ID : avc1
Codec ID/Info : Advanced Video Coding
Duration : 1h 45mn
Bit rate mode : Variable
Bit rate : 3 000 Kbps
Maximum bit rate : 15.0 Mbps
Width : 1 280 pixels
Height : 528 pixels
Display aspect ratio : 2.40:1
Frame rate mode : Constant
Frame rate : 23.976 fps
Color space : YUV
Chroma subsampling : 4:2:0
Bit depth : 8 bits
Scan type : Progressive
Bits/(Pixel*Frame) : 0.185
Stream size : 2.14 GiB (87%)
Writing library : x264

Audio
ID : 2
Format : AAC
Format/Info : Advanced Audio Codec
Format version : Version 4
Format profile : LC
Format settings, SBR : No
Codec ID : 40
Duration : 1h 45mn
Bit rate mode : Variable
Bit rate : 443 Kbps
Maximum bit rate : 559 Kbps
Channel(s) : 6 channels
Channel positions : Front: L C R, Side: L R, LFE
Sampling rate : 48.0 KHz
Stream size : 334 MiB (13%)


Plot:
A teenage girl is targeted by an online sexual predator


 
http://leetleech.org/images/78673660227160055660.png
 
http://leetleech.org/images/87184132956710296542.png
 
http://leetleech.org/images/78039439170505973886.png
 
http://leetleech.org/images/85494841195400304541.png